<svg width="120" height="120" viewBox="0 0 120 120" fill="none" xmlns="http://www.w3.org/2000/svg">
<g clip-path="url(#clip0_18878_39977)">
<path d="M47.0587 94.5841C53.5528 94.5841 58.8234 89.3135 58.8234 82.8194V71.0547H47.0587C40.5645 71.0547 35.2939 76.3253 35.2939 82.8194C35.2939 89.3135 40.5645 94.5841 47.0587 94.5841Z" fill="#0ACF83"/>
<path d="M35.2939 59.296C35.2939 52.8018 40.5645 47.5312 47.0587 47.5312H58.8234V71.0607H47.0587C40.5645 71.0607 35.2939 65.7901 35.2939 59.296Z" fill="#A259FF"/>
<path d="M35.2939 35.7647C35.2939 29.2706 40.5645 24 47.0587 24H58.8234V47.5294H47.0587C40.5645 47.5294 35.2939 42.2588 35.2939 35.7647Z" fill="#F24E1E"/>
<path d="M58.8232 24H70.5879C77.0821 24 82.3527 29.2706 82.3527 35.7647C82.3527 42.2588 77.0821 47.5294 70.5879 47.5294H58.8232V24Z" fill="#FF7262"/>
<path d="M82.3527 59.296C82.3527 65.7901 77.0821 71.0607 70.5879 71.0607C64.0938 71.0607 58.8232 65.7901 58.8232 59.296C58.8232 52.8018 64.0938 47.5312 70.5879 47.5312C77.0821 47.5312 82.3527 52.8018 82.3527 59.296Z" fill="#1ABCFE"/>
</g>
<defs>
<clipPath id="clip0_18878_39977">
<rect width="47.0588" height="70.5882" fill="white" transform="translate(35.2939 24)"/>
</clipPath>
</defs>
</svg>
