<svg width="49" height="60" viewBox="0 0 49 60" fill="none" xmlns="http://www.w3.org/2000/svg">
<g filter="url(#filter0_d_18875_39978)">
<path d="M38.8604 13.8672L36.2789 42.7874L24.6751 46.0044L13.1032 42.7918L10.5244 13.8672H38.8604Z" fill="#E44D26"/>
<path d="M24.6924 43.5437L34.0689 40.9441L36.2748 16.2305H24.6924V43.5437Z" fill="#F16529"/>
<path d="M19.6737 23.3287H24.692V19.7812H15.7969L15.8817 20.733L16.7537 30.5089H24.692V26.9614H19.9979L19.6737 23.3287ZM20.4732 32.2827H16.9122L17.4091 37.8528L24.6757 39.87L24.692 39.8655V36.1746L24.6764 36.1788L20.7258 35.112L20.4732 32.2827Z" fill="#EBEBEB"/>
<path d="M13.1611 6.00391H14.9639V7.78504H16.613V6.00391H18.4158V11.3976H16.6131V9.59149H14.964V11.3976H13.1612L13.1611 6.00391ZM20.7863 7.79259H19.1995V6.00391H24.1772V7.79259H22.5894V11.3976H20.7867V7.79259H20.7863ZM24.9671 6.00391H26.8468L28.0031 7.89911L29.1583 6.00391H31.0388V11.3976H29.2434V8.7242L28.0031 10.642H27.972L26.731 8.7242V11.3976H24.9671V6.00391ZM31.9359 6.00391H33.7392V9.61482H36.2743V11.3976H31.9358L31.9359 6.00391Z" fill="black"/>
<path d="M24.6798 30.5089H29.048L28.6361 35.1097L24.6797 36.1776V39.8683L31.952 37.8528L32.0053 37.2534L32.839 27.914L32.9256 26.9614H24.6798V30.5089ZM24.6798 23.3201V23.3287H33.2483L33.3194 22.5314L33.4812 20.733L33.5659 19.7812H24.6798V23.3201Z" fill="white"/>
</g>
<defs>
<filter id="filter0_d_18875_39978" x="0.524414" y="0.00390625" width="48.3359" height="60" filterUnits="userSpaceOnUse" color-interpolation-filters="sRGB">
<feFlood flood-opacity="0" result="BackgroundImageFix"/>
<feColorMatrix in="SourceAlpha" type="matrix" values="0 0 0 0 0 0 0 0 0 0 0 0 0 0 0 0 0 0 127 0" result="hardAlpha"/>
<feOffset dy="4"/>
<feGaussianBlur stdDeviation="5"/>
<feComposite in2="hardAlpha" operator="out"/>
<feColorMatrix type="matrix" values="0 0 0 0 0 0 0 0 0 0 0 0 0 0 0 0 0 0 0.25 0"/>
<feBlend mode="normal" in2="BackgroundImageFix" result="effect1_dropShadow_18875_39978"/>
<feBlend mode="normal" in="SourceGraphic" in2="effect1_dropShadow_18875_39978" result="shape"/>
</filter>
</defs>
</svg>
